<svg width="160" height="35" viewBox="0 0 160 35" fill="none" xmlns="http://www.w3.org/2000/svg">
<g clip-path="url(#clip0_887_175)">
<path d="M80.1677 7.84668V11.2862H74.8008C73.7814 11.2506 72.7618 11.35 71.7685 11.5818C71.1265 11.7712 70.5651 12.1681 70.1718 12.7104C69.9073 13.0569 69.7073 13.4483 69.5815 13.8659C69.4343 14.5151 69.3445 15.176 69.3131 15.8409H80.1408V19.2805H69.34C69.3359 19.9267 69.4648 20.5668 69.7187 21.1609C69.9726 21.755 70.3461 22.2903 70.8159 22.7334C72.0806 23.4999 73.5562 23.8434 75.0289 23.7142H80.1677V27.1538H74.8008C73.5255 27.1644 72.2515 27.0746 70.9903 26.8851C69.3755 26.6697 67.9004 25.8545 66.8578 24.601C65.3187 22.5525 64.5492 20.0266 64.6842 17.4666C64.603 16.0133 64.8367 14.5595 65.3694 13.2051C65.902 11.8507 66.721 10.6278 67.7702 9.62019C68.4243 9.01907 69.1966 8.56143 70.0377 8.27662C71.0924 7.99884 72.181 7.87218 73.2712 7.90042L80.1677 7.84668Z" fill="white"/>
<path d="M86.0711 7.84668L90.4049 22.3707L94.43 7.84668H99.0187L103.044 22.3707L107.337 7.84668H111.564L105.405 27.1538H100.723L96.6976 13.2344L92.6724 27.1538H88.0569L81.8447 7.84668H86.0711Z" fill="white"/>
<path d="M128.403 7.84668V11.2862H123.036C122.016 11.2498 120.997 11.3492 120.003 11.5818C119.361 11.7712 118.8 12.1681 118.407 12.7104C118.142 13.0569 117.942 13.4483 117.816 13.8659C117.669 14.5151 117.579 15.176 117.548 15.8409H128.403V19.2805H117.575C117.571 19.9253 117.699 20.5642 117.951 21.1579C118.202 21.7516 118.572 22.2877 119.037 22.7334C120.308 23.4975 121.787 23.8407 123.264 23.7142H128.403V27.1538H123.036C121.756 27.1639 120.477 27.074 119.212 26.8851C117.599 26.6634 116.126 25.8494 115.079 24.601C113.55 22.548 112.786 20.0243 112.919 17.4666C112.838 16.0133 113.072 14.5595 113.604 13.2051C114.137 11.8507 114.956 10.6278 116.005 9.62019C116.659 9.01907 117.431 8.56143 118.273 8.27662C119.323 7.99956 120.407 7.87291 121.493 7.90042L128.403 7.84668Z" fill="white"/>
<path d="M131.408 7.84668H135.433V18.7027C135.433 20.0463 135.554 20.9734 135.608 21.3899C135.647 21.7853 135.793 22.1626 136.029 22.4819C136.265 22.8012 136.583 23.0506 136.949 23.2037C138.16 23.601 139.435 23.7651 140.706 23.6874H144.638V27.1269H140.264C138.765 27.2064 137.262 27.1208 135.782 26.8716C134.809 26.6285 133.921 26.125 133.212 25.415C132.503 24.705 132 23.8152 131.757 22.8409C131.495 21.5142 131.387 20.1617 131.435 18.8102L131.408 7.84668Z" fill="white"/>
<path d="M146.784 7.84668H150.809V18.7027C150.809 20.0463 150.93 20.9734 150.984 21.3899C151.02 21.7861 151.165 22.1648 151.401 22.4846C151.638 22.8043 151.958 23.0531 152.325 23.2037C153.536 23.601 154.811 23.7651 156.082 23.6874H160.014V27.1269H155.64C154.138 27.1735 152.635 27.0563 151.158 26.7776C150.185 26.5358 149.295 26.0328 148.586 25.3225C147.877 24.6123 147.374 23.7218 147.133 22.7469C146.871 21.4202 146.763 20.0677 146.811 18.7162L146.784 7.84668Z" fill="white"/>
<path d="M38.3596 25.3933C36.5336 25.397 34.763 24.7651 33.3508 23.6059C31.9386 22.4466 30.9726 20.832 30.6179 19.0382H35.475C35.8215 19.739 36.3946 20.3018 37.1009 20.6353C37.8073 20.9687 38.6055 21.0532 39.3659 20.875C40.1263 20.6968 40.8042 20.2663 41.2894 19.6536C41.7746 19.0409 42.0387 18.2818 42.0387 17.4998C42.0387 16.7178 41.7746 15.9588 41.2894 15.346C40.8042 14.7333 40.1263 14.3028 39.3659 14.1246C38.6055 13.9464 37.8073 14.0309 37.1009 14.3643C36.3946 14.6978 35.8215 15.2606 35.475 15.9614H30.6179C30.9287 14.3486 31.7338 12.8729 32.9211 11.7396C34.1085 10.6064 35.619 9.87186 37.2427 9.63833C38.8663 9.4048 40.5222 9.68384 41.9801 10.4366C43.438 11.1895 44.6253 12.3786 45.3768 13.8386H48.919C48.0546 11.3415 46.3346 9.23184 44.0643 7.88408C41.7941 6.53632 39.1204 6.03764 36.5178 6.47653C33.9152 6.91543 31.5521 8.26352 29.8478 10.2815C28.1436 12.2995 27.2085 14.8569 27.2085 17.4998C27.2085 20.1427 28.1436 22.7001 29.8478 24.7181C31.5521 26.7361 33.9152 28.0842 36.5178 28.5231C39.1204 28.962 41.7941 28.4633 44.0643 27.1156C46.3346 25.7678 48.0546 23.6581 48.919 21.161H45.35C44.6815 22.4381 43.6766 23.5076 42.4444 24.2537C41.2122 24.9997 39.7996 25.3938 38.3596 25.3933Z" fill="white"/>
<path d="M20.8503 30.2979H16.1543V35.0003H20.8503V30.2979Z" fill="white"/>
<path d="M20.8772 20.9863H17.7778V24.09H20.8772V20.9863Z" fill="white"/>
<path d="M38.3596 0H20.9172V4.03071H24.9424V8.06142H20.9172V11.8234H23.1847V14.2687V14.0941H20.877V12.0115V14.2822V21H23.9763V24.1171H20.877V21.3493V26.0653V30.2975H25.5864V35H38.3596C42.9855 35 47.4221 33.1598 50.6932 29.8842C53.9642 26.6086 55.8019 22.166 55.8019 17.5336C55.8019 12.9012 53.9642 8.45856 50.6932 5.18297C47.4221 1.90738 42.9855 0.0671785 38.3596 0.0671785V0ZM38.3596 31.0096C35.6911 31.0096 33.0825 30.2175 30.8634 28.7335C28.6443 27.2495 26.9143 25.1402 25.8919 22.6719C24.8695 20.2037 24.6006 17.4874 25.1193 14.8662C25.6379 12.2451 26.9208 9.83666 28.8058 7.9453C30.6908 6.05394 33.0933 4.76452 35.7099 4.23996C38.3264 3.7154 41.0395 3.97924 43.5063 4.99814C45.9732 6.01704 48.0831 7.74528 49.5694 9.96449C51.0558 12.1837 51.8519 14.7943 51.8572 17.4664C51.8625 19.2442 51.5172 21.0054 50.8411 22.6492C50.165 24.293 49.1714 25.7869 47.9173 27.0452C46.6632 28.3035 45.1734 29.3015 43.5332 29.9818C41.893 30.6621 40.1349 31.0114 38.3596 31.0096Z" fill="white"/>
<path d="M17.7778 14.0938H15.5103V16.3644H17.7778V14.0938Z" fill="white"/>
<path d="M16.1545 24.0234H14.5444V25.6357H16.1545V24.0234Z" fill="white"/>
<path d="M13.9538 7.16113H12.3438V8.77342H13.9538V7.16113Z" fill="white"/>
<path d="M16.3287 0H12.3438V3.9904H16.3287V0Z" fill="white"/>
<path d="M3.8239 7.96777H0V11.7969H3.8239V7.96777Z" fill="white"/>
<path d="M12.3436 13.8252H5.00439V21.1745H12.3436V13.8252Z" fill="white"/>
<path d="M8.0906 24.1035H1.90527V30.2974H8.0906V24.1035Z" fill="white"/>
</g>
<defs>
<clipPath id="clip0_887_175">
<rect width="160" height="35" fill="white"/>
</clipPath>
</defs>
</svg>
